<svg
          version="1.1"
          id="Layer_1"
          xmlns="http://www.w3.org/2000/svg"
          xmlns:xlink="http://www.w3.org/1999/xlink"
          x="0px"
          y="0px"
          width="100%"
          viewBox="0 0 736 1024"
          enable-background="new 0 0 736 1024"
          xml:space="preserve"
        >
          <path
            fill="#000000"
            opacity="1.000000"
            stroke="none"
            d="M411.155884,231.779144 
	C452.751465,251.952774 495.897125,266.554047 540.667542,276.206970 
	C565.239624,281.504913 590.127258,285.021881 615.245117,286.813324 
	C624.727722,287.489624 634.202515,287.907379 643.696533,287.913300 
	C647.546265,287.915710 649.057922,289.215576 649.524658,293.373444 
	C652.233887,317.507751 650.967957,341.577820 649.461365,365.706329 
	C647.289734,400.486237 642.334045,434.867310 635.233826,468.929871 
	C626.005493,513.201904 612.885254,556.324524 595.004883,597.901428 
	C575.165955,644.032410 550.139709,687.150940 519.104553,726.710327 
	C484.781494,770.460571 445.190186,808.475647 397.766632,837.902954 
	C389.991913,842.727295 381.691986,846.698425 373.819244,851.374329 
	C369.795959,853.763794 366.399475,853.024902 362.597656,851.040833 
	C337.975555,838.191345 315.009003,822.821594 293.717163,805.055420 
	C236.855057,757.609070 192.811768,699.994995 159.311035,634.158325 
	C130.495651,577.529480 110.851128,517.752563 98.998093,455.415924 
	C92.436020,420.905151 88.093979,386.110748 86.470024,350.952942 
	C85.614853,332.439056 85.760002,314.006805 86.790085,295.541565 
	C87.168274,288.762115 87.702789,288.138702 94.431259,288.002563 
	C152.320724,286.831482 208.579910,276.412231 263.272247,257.662903 
	C297.703339,245.859390 330.722137,230.795273 361.977844,212.063126 
	C366.389435,209.419174 369.825592,209.296799 374.341583,211.884857 
	C386.332001,218.756439 398.632996,225.086044 411.155884,231.779144 
M621.732117,427.390961 
	C623.852661,413.423187 625.841980,399.441010 626.997070,385.350159 
	C628.899231,362.146057 631.489075,338.976837 630.054871,315.624451 
	C629.576355,307.832520 629.493347,307.660431 621.710144,307.373474 
	C596.034973,306.426758 570.659668,302.803314 545.510803,297.895813 
	C488.961700,286.860901 435.018372,268.214600 384.048492,241.187256 
	C382.535645,240.385071 381.084717,238.845825 378.990997,239.898758 
	C377.792603,241.915588 378.360474,244.129898 378.360107,246.234940 
	C378.344727,334.527588 378.359711,422.820221 378.389038,511.112854 
	C378.391937,519.922729 376.798462,519.895752 387.364258,519.889038 
	C456.498627,519.845398 525.633118,519.782837 594.767151,519.915222 
	C599.492004,519.924255 601.509277,518.423340 602.732849,513.926758 
	C610.421509,485.670898 617.066223,457.196014 621.732117,427.390961 
M326.503723,254.106033 
	C288.566895,272.055328 249.078415,285.478943 208.116180,294.559143 
	C177.016739,301.452972 145.575775,305.923676 113.735580,307.373169 
	C109.488663,307.566528 107.017792,308.837341 106.718994,313.729431 
	C106.036293,324.906372 106.609322,336.015533 107.164207,347.171539 
	C108.620087,376.442047 111.378868,405.559296 116.364693,434.445251 
	C120.979019,461.178925 126.752037,487.653442 134.367874,513.710022 
	C135.399063,517.238159 136.333618,519.937622 141.149963,519.928284 
	C211.647827,519.792053 282.146088,519.824524 352.644135,519.925110 
	C356.786652,519.931030 358.188049,518.475830 358.178680,514.396606 
	C358.147308,500.746887 358.672028,487.092560 358.473663,473.447388 
	C358.129944,449.801819 358.449066,426.162842 358.520966,402.520020 
	C358.679596,350.355072 358.592102,298.189362 358.577850,246.023956 
	C358.577240,243.744904 358.666229,241.340332 356.262299,239.553070 
	C346.589081,244.279526 336.881927,249.022568 326.503723,254.106033 
M218.843781,692.689209 
	C256.036163,745.549072 300.761658,790.423645 356.845886,824.081116 
	C358.527252,820.348328 358.516479,817.364197 358.552399,814.411011 
	C358.615112,809.249573 358.605682,804.087158 358.605042,798.925110 
	C358.595490,721.944580 358.589661,644.964050 358.556946,567.983521 
	C358.554260,561.659912 357.717682,555.351501 358.256561,549.011719 
	C358.910370,541.320190 357.928131,540.267151 350.214935,540.266663 
	C283.565033,540.262512 216.915131,540.265930 150.265228,540.273621 
	C143.196594,540.274414 142.851944,540.701782 145.084457,547.283020 
	C151.508087,566.219116 158.909271,584.765808 167.325119,602.908325 
	C181.798172,634.108765 198.565720,663.991760 218.843781,692.689209 
M454.054230,767.551331 
	C475.335632,747.277893 494.694122,725.299622 512.067261,701.601562 
	C546.708862,654.348206 572.741882,602.599854 592.166931,547.431641 
	C594.463928,540.908264 594.016846,540.279358 587.046265,540.276855 
	C519.565002,540.252075 452.083649,540.286377 384.602570,540.163025 
	C379.899780,540.154480 378.258301,541.509277 378.264740,546.394165 
	C378.384338,637.201660 378.344269,728.009338 378.369965,818.817017 
	C378.370453,820.541077 377.750702,822.538147 380.106354,824.125854 
	C406.748169,808.443298 431.100342,789.506836 454.054230,767.551331 
z"
          />
          <path
            fill="#000000"
            opacity="1.000000"
            stroke="none"
            d="
M344.398499,163.419617 
	C344.740967,168.270370 338.722534,177.760391 334.471924,179.672760 
	C333.165619,180.260468 332.158752,179.977386 331.388550,178.957123 
	C328.649689,175.329254 325.330505,172.454193 319.305725,170.682312 
	C325.645477,166.368759 324.753967,160.761459 324.659302,155.352036 
	C324.627045,153.508301 324.692444,151.320312 322.042023,151.418365 
	C319.752869,151.503082 319.920807,153.673187 319.686951,155.229141 
	C319.517303,156.357666 319.681580,157.555954 319.820526,158.708237 
	C320.940887,168.000015 315.703369,174.045273 309.259186,179.481506 
	C307.293884,181.139389 305.661713,180.308350 303.931580,178.930847 
	C300.344421,176.074860 296.377930,174.016724 291.640350,174.017670 
	C288.514465,174.018295 285.341827,174.462845 284.360870,177.972504 
	C283.365143,181.535141 284.778412,184.531265 287.909302,186.578461 
	C295.019165,191.227402 309.522980,189.091171 314.852478,182.661179 
	C315.353058,182.057236 316.031372,181.600601 316.511993,181.177063 
	C318.604614,181.619797 318.653168,182.871292 318.351624,184.299057 
	C318.317322,184.461487 318.259613,184.619339 318.207825,184.777695 
	C315.882538,191.884018 305.727936,195.948212 294.519379,194.258987 
	C285.897766,192.959671 279.780426,186.806137 279.645538,179.297180 
	C279.503723,171.402710 283.838989,166.181061 293.055267,163.730179 
	C297.113434,162.651016 299.569855,160.586823 299.737976,156.264755 
	C299.822418,154.094391 299.229889,152.195389 296.909607,151.556335 
	C294.844299,150.987518 292.869598,151.317902 291.666473,153.354202 
	C290.925232,154.608688 290.625458,156.501663 288.596985,155.832291 
	C286.884949,155.267319 286.171692,153.658279 285.811798,151.952667 
	C284.809723,147.203461 287.046112,142.562302 292.245392,140.982773 
	C296.717407,139.624176 299.766296,137.840179 301.138733,133.036301 
	C301.993134,130.045700 304.998535,128.166687 308.030396,125.692863 
	C302.816498,126.794296 298.393250,126.611786 293.932190,125.000267 
	C285.986053,122.129799 285.931885,122.279747 283.229675,129.888824 
	C280.245026,129.908356 279.856262,127.809441 279.720459,125.541901 
	C279.370575,119.699738 283.982330,114.544868 290.382507,113.770477 
	C292.187866,113.552040 294.099945,113.447060 295.861481,113.798813 
	C299.280182,114.481468 302.672638,115.383232 305.991394,116.455856 
	C309.812469,117.690834 312.259796,113.717781 315.838379,113.805412 
	C317.515045,117.562675 313.899811,118.928810 312.722015,122.083481 
	C316.704315,120.992935 319.389038,118.587700 321.893341,116.323730 
	C325.893280,112.707619 328.976624,113.374001 332.555786,116.942062 
	C338.426331,122.794456 338.822784,122.955406 345.101776,117.363358 
	C349.752533,113.221405 353.768066,112.589279 358.624512,116.628464 
	C360.515411,118.201149 362.856689,119.577293 365.170990,116.841263 
	C365.867676,116.017639 366.925842,115.821205 367.827484,116.662979 
	C368.862274,117.629044 368.802795,118.980080 368.031830,119.853317 
	C358.225616,130.960999 362.158081,144.483307 361.450989,157.166855 
	C361.332794,159.286591 361.826630,161.479477 362.289337,163.583206 
	C362.951141,166.592148 364.435455,168.120316 367.547516,165.911636 
	C368.376526,165.323257 369.386963,165.011063 370.240326,165.981766 
	C371.237732,167.116226 370.753845,168.272339 369.940613,169.123489 
	C366.616028,172.603226 363.318390,176.125473 359.767853,179.365814 
	C357.883636,181.085419 355.763519,180.317047 353.907166,178.746872 
	C350.422760,175.799667 348.252686,171.997696 347.905731,167.568466 
	C346.933624,155.158524 345.208282,142.718170 350.743408,130.681259 
	C352.917664,125.953041 347.767548,126.335007 344.387695,123.832985 
	C344.387695,137.584579 344.387695,150.282608 344.398499,163.419617 
M315.814819,160.162079 
	C315.814819,149.731857 315.814819,139.301651 315.814819,128.871429 
	C312.285828,140.941498 319.391541,155.625183 304.185089,164.010590 
	C307.287079,166.404495 309.890472,168.292526 312.978210,167.400024 
	C315.875702,166.562500 315.708405,163.579941 315.814819,160.162079 
M322.632385,141.499344 
	C326.456909,137.361588 325.476685,128.506088 319.654694,125.397926 
	C319.654694,130.577087 319.628784,135.133636 319.669952,139.689590 
	C319.682922,141.125290 320.525299,141.768524 322.632385,141.499344 
M338.236298,133.703552 
	C338.378204,135.711517 337.834625,137.842560 339.468781,140.607224 
	C340.733124,135.799820 341.112335,131.950211 339.957550,127.526199 
	C337.984253,129.294876 338.320709,131.162109 338.236298,133.703552 
M340.684479,157.488556 
	C340.422089,155.793640 341.306458,153.876801 339.327087,151.921692 
	C337.648407,156.060089 338.091583,159.726212 338.893494,164.156403 
	C340.923859,161.933182 340.495850,160.034653 340.684479,157.488556 
z"
          />
          <path
            fill="#000000"
            opacity="1.000000"
            stroke="none"
            d="
M125.504150,142.052094 
	C126.635857,143.635056 127.939453,143.585327 129.310715,143.505264 
	C139.119751,142.932587 146.742691,147.051025 149.667145,154.463638 
	C152.665665,162.064072 150.219391,171.143936 143.532944,177.081619 
	C133.697723,185.815491 111.047997,186.791382 102.569801,175.467972 
	C98.823334,170.464218 94.561440,170.078537 90.987869,173.106232 
	C87.472183,176.084930 86.830688,182.917419 89.898880,186.783066 
	C91.010056,188.183029 92.432343,189.708313 94.033867,190.286041 
	C103.924675,193.854034 113.758507,195.039154 122.930130,188.205750 
	C124.128029,187.313232 125.304955,185.775253 126.724480,187.301193 
	C127.977539,188.648209 126.818596,190.107727 125.905869,191.304718 
	C117.097824,202.855820 92.789413,201.129486 85.675568,188.456482 
	C81.715721,181.402176 83.352425,172.787735 89.717903,167.180664 
	C96.870285,160.880432 106.971909,159.905548 113.665016,164.731110 
	C115.515388,166.065186 116.666328,168.323242 119.989914,169.166122 
	C120.990189,163.679001 121.095551,158.327194 120.046700,153.060989 
	C119.523712,150.435043 116.803131,151.097900 114.951050,151.499710 
	C111.596596,152.227493 108.333313,152.163666 105.087822,151.191025 
	C99.117188,149.401703 95.285828,145.484070 94.418839,139.273163 
	C93.624031,133.579330 96.387161,129.340790 100.960381,126.187126 
	C102.052567,125.433945 103.212921,124.742874 104.421768,124.201546 
	C112.239586,120.700737 120.946053,118.992172 127.023552,112.268654 
	C129.433182,114.422226 130.402832,117.079910 132.974915,118.304657 
	C136.991989,120.217476 140.622971,120.366158 143.909668,116.919281 
	C144.898209,115.882584 145.917145,114.187973 147.595032,115.483910 
	C149.329712,116.823715 148.256500,118.489944 147.468994,119.963646 
	C144.426254,125.657700 139.412750,128.717163 133.359192,130.190735 
	C124.264198,132.404678 124.247810,132.337372 125.504150,142.052094 
M125.081238,175.804611 
	C127.193619,179.356567 129.143066,179.603058 131.691391,176.640411 
	C135.847168,171.808899 135.647690,157.308792 131.354721,152.618225 
	C130.057556,151.200912 128.395889,150.087830 126.543671,150.713425 
	C124.615486,151.364700 125.002296,153.479218 124.986832,155.063293 
	C124.922119,161.690094 124.972893,168.318024 125.081238,175.804611 
M114.858536,143.766129 
	C118.351326,145.795578 120.139313,144.523560 120.555893,140.767960 
	C120.943314,137.275284 120.553505,133.777817 119.698608,130.435608 
	C119.004913,127.723633 116.722420,125.700668 113.952408,125.807556 
	C111.500252,125.902191 110.821251,128.650223 110.524803,130.712662 
	C109.849174,135.413040 110.006821,140.022842 114.858536,143.766129 
z"
          />
          <path
            fill="#000000"
            opacity="1.000000"
            stroke="none"
            d="
M375.901459,911.981689 
	C377.770081,921.652710 374.407684,927.263428 365.734039,931.567810 
	C355.455139,936.668762 356.067566,937.191772 346.590607,930.543091 
	C341.946075,927.284546 340.318054,923.747314 340.581451,918.182678 
	C341.045746,908.374512 340.780914,898.526978 340.645599,888.698303 
	C340.606598,885.866882 341.530243,884.095581 344.013733,882.645813 
	C348.179596,880.213745 352.211395,877.526123 356.138214,874.720093 
	C358.554901,872.993103 360.601074,873.012756 362.920044,874.764465 
	C377.104431,885.478882 375.917053,879.242065 375.934387,898.489746 
	C375.938263,902.821594 375.912720,907.153503 375.901459,911.981689 
M353.293213,910.392517 
	C353.310425,920.907532 354.915344,923.715149 362.330750,925.786133 
	C362.646820,924.735474 363.234070,923.673401 363.246124,922.604919 
	C363.359894,912.508850 363.429962,902.411499 363.380981,892.315063 
	C363.368927,889.837769 361.874542,887.969971 359.865112,886.585632 
	C358.401062,885.577026 357.036591,883.863403 355.031982,884.709351 
	C352.948700,885.588440 353.320496,887.730835 353.309937,889.511963 
	C353.270630,896.148376 353.294128,902.785217 353.293213,910.392517 
z"
          />
          <path
            fill="#000000"
            opacity="1.000000"
            stroke="none"
            d="
M425.702026,893.483154 
	C428.194305,889.540466 428.531128,885.645264 427.074066,881.698059 
	C426.291687,879.578613 424.585510,878.112244 422.219238,877.868103 
	C420.682098,877.709656 419.689484,878.674683 419.350769,880.114258 
	C418.828613,882.333252 419.026917,884.414551 420.927307,886.033936 
	C421.792023,886.770813 422.996460,887.195984 423.377167,888.876709 
	C421.487793,892.105225 419.123169,895.080322 414.542511,893.814209 
	C410.486877,892.693298 408.726898,889.539307 408.782837,885.460083 
	C408.885345,877.984741 416.085083,871.732544 425.279297,871.012512 
	C432.930603,870.413330 439.237183,875.058350 440.708435,882.268494 
	C441.507629,886.184998 440.266785,889.586243 437.955078,892.528381 
	C435.893982,895.151611 436.094391,896.940979 438.443878,899.354919 
	C445.536011,906.641846 445.567169,917.484680 438.735229,925.045410 
	C434.896393,929.293579 429.917969,932.098938 425.275909,935.320618 
	C423.737274,936.388428 422.184174,936.143494 420.548889,935.414795 
	C416.833679,933.759216 413.683807,931.360718 410.930298,928.405396 
	C406.838593,924.013855 406.870392,923.155640 411.434418,919.313110 
	C412.939117,918.046204 414.301300,916.514465 416.798431,915.926147 
	C419.978729,919.560486 421.604492,925.112122 427.240662,926.340271 
	C431.208923,921.787170 432.160645,911.404053 429.097839,906.640808 
	C427.362854,903.942566 425.074799,902.823669 421.861877,903.970459 
	C420.344452,904.512146 418.504364,905.376526 417.535767,903.207153 
	C416.623779,901.164673 418.465851,900.293274 419.647797,899.200500 
	C421.596832,897.398682 423.544647,895.595459 425.702026,893.483154 
z"
          />
          <path
            fill="#000000"
            opacity="1.000000"
            stroke="none"
            d="
M315.555511,932.429077 
	C310.951813,930.028931 306.799255,928.627808 303.410034,933.692932 
	C302.723297,934.719238 301.773376,935.478943 300.476074,934.857849 
	C299.220337,934.256653 299.255249,933.021545 299.312897,931.824768 
	C299.526825,927.380737 301.211090,923.442993 303.391907,919.652527 
	C306.245239,914.693054 310.283752,910.722168 314.048096,906.499268 
	C317.710785,902.390564 321.204895,898.098999 320.774323,891.999146 
	C320.628357,889.931152 320.182556,888.018555 318.796936,886.479675 
	C317.127106,884.625122 315.007751,882.140076 312.561981,883.995239 
	C309.994568,885.942810 310.525299,889.349304 312.526642,891.588196 
	C314.525909,893.824829 316.243256,895.342407 313.089569,897.962219 
	C309.446045,900.988647 305.712402,901.394470 302.786072,898.669189 
	C298.929535,895.077454 298.873718,888.726013 302.881927,883.687195 
	C306.151123,879.577332 310.734924,877.059509 315.108643,874.338318 
	C315.756744,873.935120 316.830933,873.624023 317.462738,873.878662 
	C323.986786,876.508606 330.623840,879.218079 333.295135,886.511292 
	C335.748871,893.210632 334.127441,899.278748 329.357544,904.513916 
	C326.188568,907.991882 322.245758,910.498779 318.428375,913.171448 
	C316.596252,914.454224 314.246826,915.319580 313.584961,918.478210 
	C317.993713,920.177795 322.364899,922.020569 326.849304,923.526306 
	C329.156799,924.301147 330.521240,922.598572 331.542480,920.728638 
	C332.201447,919.522095 332.973267,918.255005 334.601410,918.892273 
	C336.528473,919.646423 336.001221,921.294495 335.600067,922.733093 
	C334.151031,927.929504 331.139923,931.973450 326.492065,934.745361 
	C322.329712,937.227844 319.249084,934.205811 315.555511,932.429077 
z"
          />
          <path
            fill="#000000"
            opacity="1.000000"
            stroke="none"
            d="
M412.430908,152.993713 
	C412.429535,160.627975 411.155975,167.829407 413.424469,175.118195 
	C414.632111,178.998505 409.783295,180.515533 407.456207,182.845108 
	C405.374207,184.929321 403.978363,182.550171 402.497375,181.347855 
	C399.462128,178.883713 397.624268,176.907486 399.223145,171.941101 
	C401.219513,165.740143 400.005005,158.748825 399.681427,152.099380 
	C399.552917,149.457825 397.796967,148.384232 394.228485,148.853592 
	C396.914429,143.708176 400.396545,140.935822 404.330048,139.118195 
	C406.925262,137.918991 408.473602,140.721466 409.586731,142.679794 
	C411.493896,146.035065 413.436279,146.063126 416.326660,143.766037 
	C423.485596,138.076553 424.596588,138.079575 432.141266,142.537323 
	C433.928436,143.593277 433.421936,144.959290 432.626312,146.379211 
	C428.333832,154.039841 430.967621,162.346466 430.511749,170.354019 
	C430.346924,173.249191 433.660828,171.993530 435.097565,173.051132 
	C434.742462,176.233109 428.396545,183.223099 425.745239,183.483322 
	C424.405396,183.614853 423.565521,182.861725 422.746368,182.011536 
	C420.094543,179.259247 418.622772,176.074051 418.688843,172.147110 
	C418.786865,166.322510 418.703400,160.494644 418.675964,154.668274 
	C418.667877,152.953934 418.481476,151.204224 416.593262,150.518494 
	C414.621582,149.802475 413.518341,151.149658 412.430908,152.993713 
z"
          />
          <path
            fill="#000000"
            opacity="1.000000"
            stroke="none"
            d="
M479.072510,151.306442 
	C477.503937,151.377777 476.185333,151.128998 475.242554,151.612701 
	C473.304474,152.607132 473.048096,154.526184 473.898926,156.348740 
	C474.758850,158.190765 476.265503,157.584686 477.749268,156.977005 
	C484.416718,154.246338 487.629517,155.022903 490.317230,159.920746 
	C493.763245,166.200333 492.526733,173.478531 487.356567,176.872238 
	C484.992859,178.423782 482.435181,179.686462 480.113892,181.294403 
	C476.762848,183.615646 473.896790,185.199326 470.181061,181.348526 
	C467.139374,178.196243 463.812988,181.353577 460.870087,182.729279 
	C458.862122,180.455933 460.048737,178.727707 461.347107,177.218765 
	C464.963409,173.016129 469.092255,169.836533 475.169891,171.129181 
	C476.518555,171.416046 477.939667,171.528503 478.583069,169.944733 
	C479.302246,168.174347 479.292297,166.292511 478.337860,164.633270 
	C477.406128,163.013474 475.907257,163.393234 474.362579,163.821030 
	C466.608948,165.968430 463.768860,165.217804 461.617004,160.595047 
	C459.135193,155.263596 461.296936,149.538940 467.222931,145.758987 
	C469.467224,144.327423 471.794525,143.010529 473.942047,141.446487 
	C476.521973,139.567520 478.716675,138.122482 481.607147,141.290955 
	C484.335632,144.281860 486.107361,140.281754 488.151062,139.347992 
	C491.672882,144.977936 487.270844,150.714386 479.072510,151.306442 
z"
          />
          <path
            fill="#000000"
            opacity="1.000000"
            stroke="none"
            d="
M226.229935,124.123352 
	C228.420853,131.800125 225.823837,133.976135 217.447220,131.867477 
	C217.276169,132.069748 216.899231,132.306000 216.877426,132.571426 
	C215.907928,144.365219 216.420380,156.177902 216.527145,167.982681 
	C216.564926,172.158676 220.407562,172.796692 224.229340,174.524933 
	C220.821213,178.591324 217.248077,181.558899 213.015762,183.699722 
	C211.702255,184.364151 210.537460,183.128708 209.496017,182.291336 
	C208.334061,181.357025 207.194183,179.679382 205.991058,179.629883 
	C198.898834,179.338196 201.360229,176.218719 203.735931,172.894562 
	C204.980988,171.152451 204.670700,169.054535 204.674286,167.070175 
	C204.694992,155.570602 204.670715,144.070923 204.696976,132.571381 
	C204.710739,126.545807 208.324539,123.117432 213.460449,121.036362 
	C218.188858,119.120407 222.598984,119.410995 226.229935,124.123352 
z"
          />
          <path
            fill="#000000"
            opacity="1.000000"
            stroke="none"
            d="
M385.787048,891.200806 
	C383.882172,888.921997 380.215546,893.010376 379.357208,889.274902 
	C378.589050,885.932068 382.389923,885.402527 384.209564,883.770508 
	C387.557831,880.767517 390.927612,877.855164 393.516998,874.114014 
	C394.571716,872.590088 395.396790,869.970886 397.912018,870.956848 
	C400.329407,871.904419 399.203094,874.455322 399.200897,876.291443 
	C399.183777,890.584167 399.024963,904.876709 398.979492,919.169434 
	C398.970642,921.948059 398.574768,924.900085 403.155731,924.794983 
	C405.462219,924.742065 405.487244,927.062927 404.020111,928.418396 
	C401.347412,930.887329 398.440826,933.113708 395.540344,935.321167 
	C394.066437,936.442810 392.759216,935.419800 391.444611,934.642334 
	C389.892548,933.724487 388.416199,932.408264 386.480042,932.574036 
	C385.008972,932.699951 383.377930,933.510193 382.639923,931.561768 
	C381.973114,929.801086 383.647247,928.924927 384.527954,927.804688 
	C385.578522,926.468079 386.653534,925.019958 386.482819,923.330994 
	C385.411865,912.736267 387.328583,902.093567 385.787048,891.200806 
z"
          />
          <path
            fill="#000000"
            opacity="1.000000"
            stroke="none"
            d="
M630.386353,178.595856 
	C634.888245,168.906860 632.006348,159.004288 632.507690,149.354355 
	C627.261963,145.379990 629.062744,142.480667 633.111877,138.491043 
	C635.392151,136.244278 635.141235,131.603195 637.955688,128.936508 
	C640.606018,126.425316 643.290283,124.035736 647.680481,124.592041 
	C647.528870,128.293884 644.612122,131.008774 645.139771,134.644638 
	C645.588562,137.737595 645.124146,140.871490 649.143066,142.330215 
	C651.367310,143.137543 651.386658,145.352661 648.912170,146.250946 
	C645.721069,147.409393 645.290771,149.763611 645.307617,152.584457 
	C645.338379,157.736176 645.228149,162.890778 645.369568,168.038879 
	C645.436829,170.486465 645.373840,173.155106 649.312927,172.898209 
	C652.458130,172.693069 652.784607,174.627914 650.942566,176.654160 
	C648.830872,178.977051 646.398376,181.019348 644.015442,183.079575 
	C642.999390,183.957993 641.644043,184.601028 640.316711,183.968933 
	C636.977295,182.378647 633.715820,180.624725 630.386353,178.595856 
z"
          />
          <path
            fill="#000000"
            opacity="1.000000"
            stroke="none"
            d="
M164.997559,126.886963 
	C167.319809,125.729507 169.071152,123.818611 171.672562,124.850891 
	C172.653412,126.995148 170.895584,128.334793 170.307938,129.947083 
	C168.372330,135.257660 169.178589,138.486511 173.507141,141.883255 
	C175.411957,143.378006 175.663727,145.235962 173.407410,146.140427 
	C170.169540,147.438370 170.011169,149.852264 170.027939,152.595932 
	C170.060486,157.920197 170.040909,163.245331 170.136368,168.568420 
	C170.180313,171.018265 170.553360,173.126190 173.911285,173.279465 
	C176.737503,173.408447 176.650818,175.329102 175.184998,177.088684 
	C173.160614,179.518814 170.861206,181.698212 168.164093,183.410492 
	C166.782608,184.287567 165.205566,184.634125 163.968872,183.552643 
	C161.418488,181.322418 158.356766,180.268066 154.595688,179.335403 
	C159.259735,170.996536 157.260635,162.253357 157.546112,153.731293 
	C157.645828,150.754272 157.447083,147.771713 154.110092,146.059326 
	C152.217590,145.088196 152.222977,142.833801 153.946777,142.034592 
	C157.326508,140.467651 157.949341,137.471649 159.067368,134.552689 
	C160.213852,131.559448 161.987091,128.949860 164.997559,126.886963 
z"
          />
          <path
            fill="#000000"
            opacity="1.000000"
            stroke="none"
            d="
M270.073608,130.225281 
	C269.135406,135.210312 267.983795,139.808517 273.360565,142.846359 
	C274.952362,143.745728 274.584259,145.458633 272.746826,146.308975 
	C271.493378,146.889069 270.302155,147.564590 270.074615,149.033005 
	C268.949554,156.293976 268.954956,163.580521 269.988464,170.841141 
	C270.459808,174.152710 273.252502,173.387070 276.109863,173.275452 
	C275.732269,178.842163 270.941132,180.387665 268.023895,183.262405 
	C266.076691,185.181274 264.210876,183.392410 262.168549,182.671158 
	C256.546509,180.685684 254.600510,178.302155 256.540588,171.607986 
	C258.322144,165.460983 256.998413,158.410126 257.014191,151.757416 
	C257.019531,149.509308 256.497833,147.699020 254.245728,146.366776 
	C251.581146,144.790543 251.203278,142.764008 254.717178,141.573898 
	C257.945923,140.480347 257.675507,137.391785 258.539368,135.034668 
	C260.825500,128.796707 265.424866,124.904556 271.523956,124.469315 
	C272.945007,126.700470 270.594574,128.054001 270.073608,130.225281 
z"
          />
          <path
            fill="#000000"
            opacity="1.000000"
            stroke="none"
            d="
M500.131927,132.381531 
	C502.983185,127.907310 506.302643,124.788597 511.401703,124.323021 
	C512.679260,126.708710 510.869812,127.880501 510.548462,129.409698 
	C509.542908,134.194702 507.244965,139.132446 513.753662,142.284195 
	C516.110962,143.425674 514.949463,145.464142 513.028687,146.441513 
	C510.758820,147.596558 510.115265,149.418457 510.123993,151.754654 
	C510.145081,157.410355 510.005157,163.068909 510.145966,168.720917 
	C510.206543,171.153366 510.108459,173.813614 514.226257,173.294281 
	C517.111877,172.930344 516.943359,175.284866 515.638184,176.870651 
	C513.421021,179.564651 510.785309,181.896667 507.731720,183.670410 
	C506.280334,184.513504 504.900452,184.258179 503.532562,183.326584 
	C499.375336,180.495224 493.703766,179.625015 497.185730,171.388077 
	C499.511658,165.885925 497.658447,158.599808 497.592529,152.112900 
	C497.567902,149.692245 496.851349,147.605606 494.493073,146.268036 
	C492.836365,145.328384 491.917603,143.005234 493.735870,142.284332 
	C498.336975,140.460144 498.288666,136.137497 500.131927,132.381531 
z"
          />
          <path
            fill="#000000"
            opacity="1.000000"
            stroke="none"
            d="
M619.940979,173.590668 
	C622.023926,173.186325 623.354919,171.346161 625.404236,172.204727 
	C626.667236,173.577515 625.838867,174.738403 624.889648,175.654800 
	C623.582642,176.916504 622.188721,178.151596 620.645203,179.091339 
	C617.593506,180.949371 615.485657,185.393997 610.821228,183.146576 
	C605.862244,180.757233 602.435120,176.791016 601.898438,171.332565 
	C601.348694,165.741714 601.585571,160.045349 601.852966,154.412964 
	C602.011292,151.077209 604.310059,148.683624 606.843018,146.678192 
	C609.577515,144.513229 612.487549,142.555740 615.105530,140.261795 
	C618.033203,137.696503 620.315979,138.298416 622.796387,140.913986 
	C627.602539,145.982071 627.686646,154.032166 622.692749,159.973572 
	C621.095093,161.874344 619.213745,163.538101 617.447571,165.295578 
	C612.932861,169.788071 613.386414,171.579559 619.940979,173.590668 
M616.080566,160.022263 
	C618.451904,154.550552 618.069092,153.003296 613.848389,151.225662 
	C612.614929,153.124130 612.457642,155.247894 612.929443,157.340271 
	C613.245789,158.743073 612.415100,161.489853 616.080566,160.022263 
z"
          />
          <path
            fill="#000000"
            opacity="1.000000"
            stroke="none"
            d="
M548.605652,149.441742 
	C545.121338,149.730515 545.059387,148.287170 546.799133,146.392120 
	C548.705688,144.315323 550.909424,142.513443 552.953003,140.559662 
	C555.000854,138.601883 557.088501,138.344360 558.939758,140.656891 
	C561.035400,143.274734 563.047485,143.360138 565.775391,141.451248 
	C568.560181,139.502594 572.236572,142.773224 574.973389,139.941666 
	C577.209473,145.313095 575.150940,150.764877 569.794189,151.850662 
	C564.120422,153.000702 562.910950,156.161804 563.367676,161.063721 
	C563.475220,162.217941 563.371582,163.391464 563.372009,164.556107 
	C563.374756,172.645203 563.950684,173.135071 571.259033,171.254913 
	C572.741699,172.469223 571.979065,173.656540 571.064148,174.655106 
	C569.493713,176.368973 567.834290,178.007309 566.139404,179.599869 
	C560.932251,184.492569 560.443787,186.016479 555.162842,179.998947 
	C553.285156,177.859360 551.094482,178.252411 549.036682,178.710709 
	C547.646912,177.660065 547.574036,176.505737 548.313110,175.462967 
	C553.310486,168.412170 550.557922,160.364548 551.220154,152.769516 
	C551.335815,151.442444 550.936035,149.675262 548.605652,149.441742 
z"
          />
          <path
            fill="#000000"
            opacity="1.000000"
            stroke="none"
            d="
M518.604614,159.734085 
	C518.340271,153.086349 520.913208,148.399323 526.149719,145.093719 
	C527.410889,144.297623 528.515259,143.252853 529.777527,142.458832 
	C532.361023,140.833771 534.264954,136.538666 538.178101,139.490036 
	C542.071716,142.426636 544.288818,146.471054 543.619080,151.594376 
	C542.743103,158.295578 537.729309,162.124710 533.276184,166.343781 
	C532.068359,167.488083 530.695190,168.751373 531.851074,170.623062 
	C533.032166,172.535690 534.627930,174.054123 537.133545,173.572281 
	C538.250122,173.357559 539.291443,172.746567 540.363281,172.306610 
	C541.492126,171.843246 542.587769,171.543320 543.841003,173.420456 
	C540.484436,177.686050 536.177917,181.118347 531.237976,183.644669 
	C529.311951,184.629654 527.480835,182.843475 525.880676,181.677063 
	C518.404907,176.227768 517.882263,168.402863 518.604614,159.734085 
M530.270630,159.555450 
	C530.857666,161.818130 531.907593,161.746384 533.244568,160.136429 
	C535.747131,157.122757 534.850281,152.767181 530.906372,150.110977 
	C529.579834,152.990601 530.134399,155.923080 530.270630,159.555450 
z"
          />
          <path
            fill="#000000"
            opacity="1.000000"
            stroke="none"
            d="
M243.309448,173.628159 
	C245.894577,173.953461 247.485992,171.553131 249.695862,172.105270 
	C250.964737,173.306290 250.504852,174.357971 249.593552,175.227463 
	C248.151352,176.603500 246.747025,178.101044 245.071442,179.132629 
	C242.111252,180.955109 239.795883,185.222366 235.627884,183.297836 
	C230.626602,180.988541 226.692566,177.018753 226.058167,171.307587 
	C225.455109,165.878479 225.613663,160.322418 225.921036,154.849365 
	C226.126999,151.182480 228.594955,148.465302 231.422424,146.243042 
	C233.386703,144.699234 235.441635,143.271179 237.445297,141.776978 
	C243.320129,137.395950 248.877136,139.592911 250.178589,146.958740 
	C251.061447,151.955521 250.140106,156.593369 246.447769,160.376404 
	C244.818573,162.045593 243.149200,163.675980 241.481873,165.307419 
	C237.292511,169.406570 237.490692,170.539749 243.309448,173.628159 
M239.304733,151.692337 
	C235.219742,154.656250 237.510605,158.050705 238.560074,161.386124 
	C241.903320,158.605347 243.039429,155.549820 239.304733,151.692337 
z"
          />
          <path
            fill="#000000"
            opacity="1.000000"
            stroke="none"
            d="
M376.835266,165.951065 
	C376.833588,162.632889 376.795868,159.803650 376.840118,156.975693 
	C376.900513,153.114822 377.309662,149.116089 371.910583,148.015472 
	C374.019836,143.516205 378.582977,141.976746 381.097931,138.086456 
	C378.883667,134.318924 374.557648,130.262512 380.043335,125.850830 
	C382.585785,123.806160 385.543243,124.366058 387.595917,126.926018 
	C391.648499,131.980240 387.370758,135.024292 384.427399,138.051178 
	C385.374023,142.210144 388.685211,142.631561 391.836334,143.347321 
	C388.361877,154.236526 386.968323,164.858551 392.358917,176.781326 
	C391.604889,179.033035 388.590790,181.173096 385.550568,183.099503 
	C382.870026,184.797989 381.209106,182.486786 379.744141,180.755219 
	C376.188843,176.552902 376.880524,171.403931 376.835266,165.951065 
z"
          />
          <path
            fill="#000000"
            opacity="1.000000"
            stroke="none"
            d="
M181.220398,143.309204 
	C183.176468,141.502472 184.875824,139.946976 186.668060,138.306427 
	C185.396362,136.277863 184.174713,134.705002 183.360275,132.943817 
	C182.066849,130.146820 182.925034,127.670288 185.336319,125.907135 
	C187.752304,124.140564 190.391800,124.084511 192.649200,126.165176 
	C195.006577,128.337997 195.289017,130.999329 193.828766,133.890839 
	C192.813446,135.901352 189.322510,136.681900 190.995316,140.069946 
	C192.293030,142.698334 195.150681,142.447311 197.577667,143.925156 
	C192.079346,151.456116 194.896484,159.960632 194.263565,168.060242 
	C194.085327,170.341171 194.455399,172.404297 197.109772,173.218109 
	C198.095734,173.520386 199.230927,174.331146 198.908081,175.310089 
	C197.692368,178.996490 194.467850,180.972931 191.521820,183.064713 
	C189.213058,184.703964 187.465714,183.063690 185.862106,181.534943 
	C183.546265,179.327179 182.694717,176.533783 182.691467,173.409485 
	C182.685577,167.750137 182.680283,162.090698 182.645737,156.431473 
	C182.623917,152.858047 182.434875,149.345200 178.171066,148.317459 
	C177.958466,145.772247 179.893387,144.937012 181.220398,143.309204 
z"
          />
          <path
            fill="#000000"
            opacity="1.000000"
            stroke="none"
            d="
M594.270020,161.944611 
	C594.267822,163.758072 594.343628,165.095825 594.246216,166.420868 
	C593.972046,170.149673 594.307434,173.485138 599.501892,174.223740 
	C597.659973,179.181244 593.943604,181.809738 590.015991,183.570511 
	C587.402893,184.741943 585.600037,181.815567 584.281311,179.750275 
	C582.612061,177.136032 582.580627,174.069336 582.597839,171.046799 
	C582.626282,166.052246 582.631958,161.057358 582.610718,156.062775 
	C582.596130,152.636261 582.371948,149.291519 577.786133,148.391312 
	C578.684753,144.876022 581.384888,143.274185 583.435364,141.292221 
	C585.525024,139.272354 586.451660,137.613937 584.295166,134.960587 
	C581.877991,131.986389 581.833069,128.709518 584.982422,126.136116 
	C587.462830,124.109360 590.328369,123.982399 592.601624,126.489998 
	C595.276978,129.441132 594.747375,132.424835 592.291260,135.444992 
	C589.328125,139.088669 589.980774,141.054916 594.676575,142.454819 
	C596.576538,143.021225 598.401917,143.858673 596.966125,145.626236 
	C592.988831,150.522690 594.679199,156.118790 594.270020,161.944611 
z"
          />
          <path
            fill="#000000"
            opacity="1.000000"
            stroke="none"
            d="
M441.939545,129.273438 
	C443.111053,126.111740 444.965790,124.401123 448.100677,124.816467 
	C450.634399,125.152176 452.389191,126.776337 453.169220,129.101288 
	C454.590027,133.336044 451.240356,135.378098 448.610413,137.827591 
	C449.616974,141.650131 452.696594,142.672531 456.930420,143.381805 
	C451.655457,151.023041 453.624115,159.226624 453.382721,167.168259 
	C453.223846,172.393784 453.393707,172.398941 458.229370,174.743240 
	C456.435120,178.704391 453.036316,181.043869 449.615936,183.210007 
	C447.754639,184.388763 446.092285,183.086288 444.891968,181.575241 
	C442.760284,178.891739 441.637177,175.845474 441.673035,172.359055 
	C441.727783,167.039566 441.568359,161.716370 441.700073,156.399704 
	C441.796173,152.520447 441.669159,148.957657 436.204437,148.229202 
	C438.719360,143.574356 442.971558,141.327133 445.961151,137.813965 
	C444.052155,135.295624 441.199463,133.323578 441.939545,129.273438 
z"
          />
          <path
            fill="#000000"
            opacity="1.000000"
            stroke="none"
            d="
M557.649780,420.247040 
	C565.483154,423.229828 572.957764,426.057892 580.428589,428.896057 
	C582.179810,429.561340 583.640625,430.613342 584.771057,432.137238 
	C588.710938,437.448059 587.688904,440.772430 581.337402,442.170563 
	C558.839661,447.122925 536.066833,449.962189 513.023438,450.220245 
	C502.210815,450.341370 492.701813,446.633087 485.259979,438.620239 
	C479.595154,432.520782 474.274017,426.101837 468.807587,419.818451 
	C460.063080,409.767090 450.069824,401.317383 437.694244,396.061432 
	C428.470367,392.144104 424.909180,394.711334 424.236938,404.758728 
	C423.401917,417.239258 423.344391,429.727997 423.128723,442.218689 
	C423.076385,445.250244 422.767059,448.036804 418.631989,447.835419 
	C414.612274,447.639618 414.962402,444.687256 414.964813,442.036224 
	C414.983032,421.989136 414.319305,401.906952 407.601440,382.837860 
	C400.722198,363.310669 408.360657,348.206726 420.195343,333.828552 
	C423.255157,330.111115 425.562988,331.022644 428.610931,334.193115 
	C447.684662,354.033722 464.654846,375.690308 482.697784,396.417816 
	C488.198029,402.736450 494.394196,408.256500 501.333771,412.959198 
	C510.598297,419.237427 520.472107,420.655609 530.695312,415.966766 
	C535.664734,413.687469 540.168091,413.663147 545.066406,415.711395 
	C549.054626,417.379089 553.208984,418.649475 557.649780,420.247040 
z"
          />
          <path
            fill="#000000"
            opacity="1.000000"
            stroke="none"
            d="
M239.279404,410.281219 
	C250.294907,401.671967 258.648254,391.051300 267.155579,380.581879 
	C280.184723,364.547729 293.825562,349.047607 307.671600,333.718384 
	C310.588135,330.489410 313.069122,330.205536 315.890289,333.465332 
	C328.391663,347.910309 335.922333,363.437805 328.899048,383.234711 
	C324.264282,396.298950 322.546204,410.050354 322.223083,423.944153 
	C322.068329,430.599548 321.535065,437.245575 321.334473,443.900757 
	C321.250610,446.682159 319.974365,447.807678 317.336914,447.778595 
	C314.530914,447.747620 313.711029,446.182922 313.654480,443.592804 
	C313.425629,433.105072 313.142303,422.617340 312.731750,412.135376 
	C312.582275,408.318542 312.188599,404.492279 311.609528,400.715820 
	C310.773285,395.262115 307.652374,393.247162 302.347290,394.923920 
	C288.374634,399.340118 277.697571,408.535095 268.132751,419.183502 
	C262.348541,425.622955 256.918030,432.381561 251.097153,438.786407 
	C243.833344,446.778900 234.476654,450.248138 223.832474,450.236694 
	C200.926468,450.212067 178.415390,446.716553 156.057907,442.100922 
	C153.621048,441.597839 150.203552,441.472717 149.924942,438.016876 
	C149.637024,434.445831 151.372116,431.431213 154.741806,429.963226 
	C160.997147,427.238129 167.321854,424.656097 173.703995,422.242706 
	C180.551529,419.653412 187.518173,417.380676 194.393433,414.862213 
	C197.686371,413.655945 200.859238,413.460968 204.058319,415.054443 
	C216.721527,421.362000 228.247849,418.910950 239.279404,410.281219 
z"
          />
          <path
            fill="#000000"
            opacity="1.000000"
            stroke="none"
            d="
M320.236938,601.571411 
	C323.179474,601.902893 324.366547,599.882141 325.924194,598.432068 
	C327.729126,596.751831 329.763000,595.496521 332.147369,597.233337 
	C334.369263,598.851807 334.473511,601.081970 333.437408,603.492188 
	C329.899902,611.721497 323.554565,616.310181 314.803223,617.419495 
	C310.578156,617.955139 308.585663,619.572449 309.138641,624.123047 
	C309.480927,626.940125 310.676636,627.654724 313.300140,627.760193 
	C327.105499,628.315125 334.506958,633.516724 336.857025,644.073181 
	C339.544128,656.143616 333.930328,667.846191 322.656464,673.705872 
	C319.536652,675.327454 316.286530,676.623413 312.829163,677.245605 
	C310.574219,677.651489 309.398132,678.641052 308.969025,681.038330 
	C308.051483,686.164368 304.734619,689.764954 300.280151,692.008545 
	C289.991180,697.190674 279.461731,697.631165 269.149384,692.117310 
	C259.955780,687.201660 255.470901,677.350586 257.647186,667.806458 
	C259.996277,657.504456 269.496918,649.573364 280.060364,648.665771 
	C286.544495,648.108704 292.085022,650.482727 297.758911,653.790710 
	C299.955139,650.461731 299.729980,647.292725 298.978333,644.013062 
	C298.454498,641.727417 296.870514,641.888062 295.105927,642.070068 
	C291.281189,642.464539 287.495087,642.446655 283.715973,641.396057 
	C270.187653,637.635376 265.840088,621.126892 275.782684,611.187195 
	C280.187988,606.783203 285.758728,604.615601 291.544128,602.955688 
	C296.727417,601.468628 301.514313,599.468628 305.696014,595.888733 
	C309.720947,592.443115 311.320740,592.823425 314.560425,597.289551 
	C315.969452,599.232056 317.429962,600.962646 320.236938,601.571411 
M293.638458,677.045288 
	C287.685364,675.315979 283.114044,671.531677 278.783295,667.291260 
	C276.452484,665.009033 273.988831,662.069458 270.177277,664.157227 
	C266.254730,666.305908 265.670959,670.121094 266.299561,674.148560 
	C266.911224,678.067139 269.355621,680.812134 272.753876,682.537231 
	C279.825531,686.127197 287.237793,685.794922 294.604645,683.671082 
	C296.703461,683.065918 298.947601,681.993347 299.489746,679.390625 
	C298.060028,677.594238 296.104309,677.700928 293.638458,677.045288 
M314.056915,659.445801 
	C315.592346,650.604431 314.140472,644.291687 309.550323,642.085144 
	C309.065491,649.998901 308.422119,657.623413 310.005890,665.416565 
	C313.524261,664.624817 313.485657,662.288757 314.056915,659.445801 
M297.226349,613.680969 
	C293.912964,612.886963 293.608398,615.418274 293.432129,617.482849 
	C293.071320,621.708496 292.834930,626.051941 298.190125,628.968689 
	C299.144470,623.574890 300.011475,618.862061 297.226349,613.680969 
z"
          />
          <path
            fill="#000000"
            opacity="1.000000"
            stroke="none"
            d="
M453.632721,593.338928 
	C461.897369,593.398743 464.815399,599.806152 468.650360,605.325134 
	C471.995667,604.187012 474.057465,601.410950 476.736725,599.561523 
	C480.748016,596.792603 484.909851,594.438232 489.612823,593.081055 
	C492.140198,592.351685 494.207642,592.923523 495.822418,595.020508 
	C497.373352,597.034546 497.179657,599.022583 495.704956,600.975769 
	C494.667480,602.349792 494.106964,603.876221 494.110199,605.611633 
	C494.136353,619.609375 494.147675,633.607056 494.192261,647.604736 
	C494.195892,648.744690 494.148071,649.974365 495.526428,650.982178 
	C498.238556,650.612732 501.608643,647.252686 504.063416,651.506775 
	C506.476318,655.688293 502.841553,657.970520 500.610352,660.407959 
	C497.356232,663.962952 493.769196,667.213318 490.322815,670.592224 
	C488.012329,672.857483 485.731018,672.709595 483.205536,670.792908 
	C479.309143,667.835815 476.240021,664.154053 473.356995,659.857117 
	C468.976501,661.646118 466.997131,665.728943 464.103943,668.745361 
	C459.346405,673.705505 458.520844,673.808350 453.927063,668.691040 
	C452.814514,667.451782 451.705444,666.206299 450.536255,665.021423 
	C444.625092,659.030884 444.352264,659.066162 439.134064,666.240845 
	C444.238281,673.227539 443.663818,678.304443 436.918335,683.864807 
	C425.002869,693.686890 400.751587,689.396301 398.089691,670.884521 
	C396.835663,662.163452 399.933136,655.227966 407.228912,650.201233 
	C412.301666,646.706238 412.757111,645.858276 412.005066,641.742371 
	C411.685577,641.681580 411.323090,641.499573 411.051483,641.590088 
	C408.862701,642.319885 407.184967,645.225525 404.344727,643.138367 
	C401.579010,641.105957 401.163116,638.241150 401.495361,635.100952 
	C402.047058,629.886475 404.472961,625.991943 409.385284,623.842896 
	C410.300385,623.442444 411.262726,623.145508 412.162292,622.715088 
	C414.141052,621.768250 414.368530,619.852234 414.381744,618.037109 
	C414.396912,615.956970 412.465118,615.926819 411.096375,615.676941 
	C407.179474,614.962097 403.743774,613.545959 401.482849,610.056274 
	C399.813995,607.480408 399.350159,604.756104 400.978424,602.045715 
	C402.595612,599.353821 405.115051,598.080811 407.545898,600.590332 
	C410.831146,603.981934 413.413239,602.447510 416.224915,600.268860 
	C418.199066,598.739136 420.099182,597.092896 422.183655,595.730225 
	C430.055725,590.584106 435.962494,591.758484 441.434082,599.426270 
	C441.901978,600.081909 442.423309,600.699463 443.064362,601.519653 
	C447.061188,599.383118 449.306549,595.290466 453.632721,593.338928 
M422.691254,666.757629 
	C420.577301,665.122864 418.355164,663.691772 415.618591,663.391357 
	C412.879944,663.090881 410.237152,663.311157 408.514191,665.835144 
	C406.719666,668.464050 407.907257,670.943359 409.295258,673.247498 
	C412.009308,677.752808 418.503235,679.691650 425.321228,678.034180 
	C428.229004,677.327332 431.452118,676.901855 432.615234,672.786072 
	C428.306610,672.501038 425.992401,669.542175 422.691254,666.757629 
M437.344360,651.420044 
	C440.168976,649.010376 443.146942,647.100525 446.989929,648.790894 
	C446.989929,637.010803 446.989929,625.614868 446.989929,613.597961 
	C443.600006,615.419800 444.260345,617.846924 444.411072,619.782776 
	C445.216705,630.130005 442.705475,639.201416 434.999237,646.558655 
	C432.319092,649.117432 433.935791,650.570984 437.344360,651.420044 
M473.637085,625.592346 
	C473.637085,622.664185 473.637085,619.736023 473.637085,616.807861 
	C473.195282,616.839661 472.753510,616.871460 472.311707,616.903320 
	C472.311707,627.205811 472.311707,637.508362 472.311707,647.810913 
	C474.052582,640.773865 473.431488,633.650696 473.637085,625.592346 
z"
          />
        </svg>